<?xml version="1.0" encoding="UTF-8"?>
<svg xmlns="http://www.w3.org/2000/svg" xmlns:xlink="http://www.w3.org/1999/xlink" width="240" height="81" viewBox="0 0 240 81">
<path fill-rule="nonzero" fill="rgb(6.15387%, 25.1297%, 46.405029%)" fill-opacity="1" d="M 18.34375 54.625 L 18.34375 53.90625 L 27.375 53.90625 L 27.375 54.625 L 26.410156 54.625 C 25.402344 54.625 24.628906 55.0625 24.085938 55.933594 C 23.820312 56.339844 23.6875 57.277344 23.6875 58.75 L 23.6875 69.484375 C 23.6875 72.140625 23.433594 74.199219 22.921875 75.660156 C 22.40625 77.125 21.402344 78.382812 19.90625 79.429688 C 18.410156 80.476562 16.375 81 13.796875 81 C 10.992188 81 8.863281 80.5 7.414062 79.496094 C 5.960938 78.496094 4.929688 77.148438 4.324219 75.457031 C 3.921875 74.296875 3.71875 72.125 3.71875 68.9375 L 3.71875 58.59375 C 3.71875 56.964844 3.5 55.894531 3.066406 55.386719 C 2.632812 54.878906 1.933594 54.625 0.964844 54.625 L 0 54.625 L 0 53.90625 L 11.0625 53.90625 L 11.0625 54.625 L 10.082031 54.625 C 9.023438 54.625 8.269531 54.96875 7.816406 55.660156 C 7.5 56.128906 7.34375 57.109375 7.34375 58.59375 L 7.34375 70.121094 C 7.34375 71.152344 7.4375 72.328125 7.621094 73.652344 C 7.804688 74.980469 8.136719 76.015625 8.617188 76.757812 C 9.101562 77.496094 9.792969 78.109375 10.703125 78.589844 C 11.609375 79.070312 12.722656 79.3125 14.039062 79.3125 C 15.726562 79.3125 17.234375 78.933594 18.566406 78.179688 C 19.898438 77.425781 20.8125 76.460938 21.300781 75.28125 C 21.785156 74.105469 22.03125 72.113281 22.03125 69.304688 L 22.03125 58.59375 C 22.03125 56.9375 21.855469 55.902344 21.503906 55.484375 C 21.011719 54.910156 20.277344 54.625 19.308594 54.625 L 18.34375 54.625 "/>
<path fill-rule="nonzero" fill="rgb(6.15387%, 25.1297%, 46.405029%)" fill-opacity="1" d="M 28.003906 53.90625 L 34.964844 53.90625 L 50.6875 73.804688 L 50.6875 58.5 C 50.6875 56.867188 50.507812 55.851562 50.148438 55.445312 C 49.675781 54.898438 48.925781 54.625 47.902344 54.625 L 47 54.625 L 47 53.90625 L 56.03125 53.90625 L 56.03125 54.625 L 55.109375 54.625 C 54.007812 54.625 53.226562 54.964844 52.765625 55.640625 C 52.484375 56.058594 52.34375 57.011719 52.34375 58.5 L 52.34375 80.835938 L 51.664062 80.835938 L 34.71875 59.464844 L 34.71875 75.8125 C 34.71875 77.441406 34.890625 78.460938 35.238281 78.863281 C 35.722656 79.414062 36.472656 79.6875 37.484375 79.6875 L 38.40625 79.6875 L 38.40625 80.40625 L 29.375 80.40625 L 29.375 79.6875 L 30.277344 79.6875 C 31.390625 79.6875 32.179688 79.347656 32.640625 78.667969 C 32.921875 78.253906 33.0625 77.300781 33.0625 75.8125 L 33.0625 57.375 C 32.316406 56.476562 31.75 55.886719 31.367188 55.601562 C 30.980469 55.3125 30.414062 55.046875 29.671875 54.800781 C 29.304688 54.683594 28.746094 54.625 28.003906 54.625 L 28.003906 53.90625 "/>
<path fill-rule="nonzero" fill="rgb(6.15387%, 25.1297%, 46.405029%)" fill-opacity="1" d="M 69.1875 79.6875 L 69.1875 80.40625 L 58.1875 80.40625 L 58.1875 79.6875 L 59.101562 79.6875 C 60.164062 79.6875 60.9375 79.367188 61.417969 78.730469 C 61.722656 78.3125 61.875 77.308594 61.875 75.71875 L 61.875 58.59375 C 61.875 57.25 61.792969 56.363281 61.628906 55.933594 C 61.5 55.609375 61.242188 55.328125 60.847656 55.09375 C 60.289062 54.78125 59.707031 54.625 59.101562 54.625 L 58.1875 54.625 L 58.1875 53.90625 L 69.1875 53.90625 L 69.1875 54.625 L 68.261719 54.625 C 67.214844 54.625 66.449219 54.945312 65.972656 55.582031 C 65.65625 56 65.5 57.003906 65.5 58.59375 L 65.5 75.71875 C 65.5 77.0625 65.582031 77.945312 65.746094 78.378906 C 65.871094 78.703125 66.136719 78.984375 66.539062 79.21875 C 67.082031 79.53125 67.65625 79.6875 68.261719 79.6875 L 69.1875 79.6875 "/>
<path fill-rule="nonzero" fill="rgb(6.15387%, 25.1297%, 46.405029%)" fill-opacity="1" d="M 98.40625 53.90625 L 98.40625 54.625 C 97.496094 54.796875 96.804688 55.097656 96.339844 55.527344 C 95.667969 56.171875 95.074219 57.152344 94.558594 58.476562 L 85.59375 81 L 84.890625 81 L 75.269531 58.171875 C 74.773438 56.996094 74.425781 56.277344 74.226562 56.015625 C 73.910156 55.609375 73.519531 55.292969 73.058594 55.066406 C 72.597656 54.835938 71.976562 54.691406 71.191406 54.625 L 71.191406 53.90625 L 81.683594 53.90625 L 81.683594 54.625 C 80.496094 54.742188 79.726562 54.949219 79.371094 55.25 C 79.019531 55.550781 78.839844 55.933594 78.839844 56.402344 C 78.839844 57.054688 79.132812 58.070312 79.710938 59.449219 L 86.257812 74.976562 L 92.335938 59.644531 C 92.929688 58.132812 93.226562 57.085938 93.226562 56.5 C 93.226562 56.121094 93.042969 55.761719 92.679688 55.414062 C 92.3125 55.070312 91.691406 54.828125 90.820312 54.683594 C 90.757812 54.671875 90.648438 54.652344 90.5 54.625 L 90.5 53.90625 L 98.40625 53.90625 "/>
<path fill-rule="nonzero" fill="rgb(6.15387%, 25.1297%, 46.405029%)" fill-opacity="1" d="M 107.648438 55.34375 L 107.648438 65.8125 L 113.273438 65.8125 C 114.75 65.8125 115.734375 65.585938 116.230469 65.128906 C 116.890625 64.53125 117.261719 63.476562 117.335938 61.96875 L 118.023438 61.96875 L 118.023438 71.1875 L 117.335938 71.1875 C 117.160156 69.902344 116.980469 69.074219 116.804688 68.710938 C 116.574219 68.257812 116.199219 67.898438 115.675781 67.640625 C 115.15625 67.378906 114.355469 67.25 113.273438 67.25 L 107.648438 67.25 L 107.648438 75.996094 C 107.648438 77.167969 107.699219 77.882812 107.800781 78.136719 C 107.902344 78.390625 108.078125 78.59375 108.332031 78.742188 C 108.585938 78.894531 109.066406 78.96875 109.773438 78.96875 L 114.140625 78.96875 C 115.59375 78.96875 116.652344 78.863281 117.308594 78.652344 C 117.96875 78.445312 118.601562 78.03125 119.207031 77.417969 C 119.992188 76.609375 120.796875 75.386719 121.617188 73.75 L 122.367188 73.75 L 120.148438 80.40625 L 100.335938 80.40625 L 100.335938 79.6875 L 101.25 79.6875 C 101.855469 79.6875 102.433594 79.535156 102.980469 79.234375 C 103.382812 79.027344 103.660156 78.710938 103.804688 78.292969 C 103.949219 77.875 104.023438 77.015625 104.023438 75.71875 L 104.023438 58.53125 C 104.023438 56.84375 103.859375 55.800781 103.53125 55.410156 C 103.074219 54.886719 102.3125 54.625 101.25 54.625 L 100.335938 54.625 L 100.335938 53.90625 L 120.179688 53.90625 L 120.429688 59.71875 L 119.679688 59.71875 C 119.414062 58.320312 119.121094 57.359375 118.800781 56.835938 C 118.476562 56.3125 118 55.910156 117.367188 55.636719 C 116.863281 55.441406 115.972656 55.34375 114.699219 55.34375 L 107.648438 55.34375 "/>
<path fill-rule="nonzero" fill="rgb(6.15387%, 25.1297%, 46.405029%)" fill-opacity="1" d="M 131.921875 66.8125 C 132.164062 66.8125 132.371094 66.816406 132.546875 66.820312 C 132.726562 66.828125 132.871094 66.832031 132.984375 66.832031 C 135.433594 66.832031 137.28125 66.285156 138.527344 65.1875 C 139.769531 64.09375 140.390625 62.695312 140.390625 61.003906 C 140.390625 59.34375 139.890625 58 138.886719 56.960938 C 137.882812 55.925781 136.550781 55.40625 134.898438 55.40625 C 134.164062 55.40625 133.171875 55.519531 131.921875 55.75 Z M 150.203125 80.40625 L 143.332031 80.40625 L 134.621094 68.03125 C 133.976562 68.058594 133.449219 68.070312 133.046875 68.070312 C 132.878906 68.070312 132.703125 68.066406 132.511719 68.058594 C 132.324219 68.054688 132.125 68.042969 131.921875 68.03125 L 131.921875 75.71875 C 131.921875 77.386719 132.101562 78.421875 132.453125 78.828125 C 132.933594 79.398438 133.652344 79.6875 134.609375 79.6875 L 135.609375 79.6875 L 135.609375 80.40625 L 124.609375 80.40625 L 124.609375 79.6875 L 125.574219 79.6875 C 126.660156 79.6875 127.433594 79.320312 127.902344 78.59375 C 128.167969 78.1875 128.300781 77.230469 128.300781 75.71875 L 128.300781 58.59375 C 128.300781 56.925781 128.121094 55.890625 127.769531 55.484375 C 127.277344 54.910156 126.546875 54.625 125.574219 54.625 L 124.609375 54.625 L 124.609375 53.90625 L 133.964844 53.90625 C 136.691406 53.90625 138.699219 54.109375 139.992188 54.523438 C 141.289062 54.933594 142.386719 55.6875 143.289062 56.789062 C 144.191406 57.890625 144.640625 59.207031 144.640625 60.730469 C 144.640625 62.359375 144.128906 63.777344 143.101562 64.976562 C 142.078125 66.175781 140.488281 67.023438 138.335938 67.515625 L 143.664062 75.097656 C 144.878906 76.851562 145.921875 78.015625 146.792969 78.589844 C 147.664062 79.164062 148.800781 79.53125 150.203125 79.6875 L 150.203125 80.40625 "/>
<path fill-rule="nonzero" fill="rgb(6.15387%, 25.1297%, 46.405029%)" fill-opacity="1" d="M 168.28125 53.3125 L 168.28125 62.46875 L 167.59375 62.46875 C 167.367188 60.710938 166.957031 59.3125 166.367188 58.273438 C 165.78125 57.230469 164.941406 56.402344 163.851562 55.792969 C 162.761719 55.179688 161.632812 54.875 160.46875 54.875 C 159.152344 54.875 158.0625 55.289062 157.199219 56.113281 C 156.339844 56.941406 155.90625 57.882812 155.90625 58.933594 C 155.90625 59.742188 156.179688 60.476562 156.726562 61.140625 C 157.511719 62.117188 159.378906 63.417969 162.332031 65.042969 C 164.738281 66.371094 166.382812 67.390625 167.261719 68.097656 C 168.140625 68.808594 168.816406 69.644531 169.289062 70.609375 C 169.765625 71.574219 170 72.582031 170 73.636719 C 170 75.640625 169.246094 77.371094 167.730469 78.820312 C 166.21875 80.273438 164.273438 81 161.894531 81 C 161.148438 81 160.445312 80.9375 159.789062 80.820312 C 159.394531 80.753906 158.582031 80.511719 157.347656 80.09375 C 156.113281 79.675781 155.332031 79.46875 155.003906 79.46875 C 154.6875 79.46875 154.4375 79.566406 154.253906 79.765625 C 154.070312 79.964844 153.933594 80.378906 153.84375 81 L 153.15625 81 L 153.15625 71.90625 L 153.84375 71.90625 C 154.175781 73.808594 154.617188 75.230469 155.175781 76.175781 C 155.730469 77.121094 156.582031 77.90625 157.730469 78.53125 C 158.875 79.15625 160.132812 79.46875 161.5 79.46875 C 163.082031 79.46875 164.332031 79.039062 165.25 78.179688 C 166.167969 77.316406 166.625 76.300781 166.625 75.128906 C 166.625 74.476562 166.453125 73.816406 166.105469 73.152344 C 165.757812 72.488281 165.21875 71.871094 164.484375 71.296875 C 163.992188 70.90625 162.640625 70.078125 160.433594 68.8125 C 158.226562 67.550781 156.660156 66.539062 155.734375 65.785156 C 154.808594 65.03125 154.105469 64.199219 153.625 63.285156 C 153.148438 62.375 152.90625 61.375 152.90625 60.28125 C 152.90625 58.382812 153.617188 56.746094 155.03125 55.371094 C 156.449219 54 158.253906 53.3125 160.441406 53.3125 C 161.808594 53.3125 163.253906 53.660156 164.785156 54.351562 C 165.496094 54.679688 165.996094 54.84375 166.285156 54.84375 C 166.613281 54.84375 166.882812 54.742188 167.09375 54.539062 C 167.300781 54.335938 167.46875 53.925781 167.59375 53.3125 L 168.28125 53.3125 "/>
<path fill-rule="nonzero" fill="rgb(6.15387%, 25.1297%, 46.405029%)" fill-opacity="1" d="M 184.777344 79.6875 L 184.777344 80.40625 L 173.777344 80.40625 L 173.777344 79.6875 L 174.691406 79.6875 C 175.753906 79.6875 176.527344 79.367188 177.007812 78.730469 C 177.3125 78.3125 177.464844 77.308594 177.464844 75.71875 L 177.464844 58.59375 C 177.464844 57.25 177.382812 56.363281 177.21875 55.933594 C 177.089844 55.609375 176.832031 55.328125 176.4375 55.09375 C 175.882812 54.78125 175.296875 54.625 174.691406 54.625 L 173.777344 54.625 L 173.777344 53.90625 L 184.777344 53.90625 L 184.777344 54.625 L 183.851562 54.625 C 182.804688 54.625 182.042969 54.945312 181.5625 55.582031 C 181.246094 56 181.089844 57.003906 181.089844 58.59375 L 181.089844 75.71875 C 181.089844 77.0625 181.171875 77.945312 181.335938 78.378906 C 181.460938 78.703125 181.726562 78.984375 182.128906 79.21875 C 182.671875 79.53125 183.246094 79.6875 183.851562 79.6875 L 184.777344 79.6875 "/>
<path fill-rule="nonzero" fill="rgb(6.15387%, 25.1297%, 46.405029%)" fill-opacity="1" d="M 208.867188 53.90625 L 209.117188 60.113281 L 208.394531 60.113281 C 208.257812 59.019531 208.070312 58.238281 207.832031 57.769531 C 207.441406 57.015625 206.921875 56.457031 206.273438 56.097656 C 205.625 55.742188 204.773438 55.5625 203.71875 55.5625 L 200.117188 55.5625 L 200.117188 75.8125 C 200.117188 77.441406 200.285156 78.460938 200.628906 78.863281 C 201.109375 79.414062 201.847656 79.6875 202.847656 79.6875 L 203.742188 79.6875 L 203.742188 80.40625 L 192.804688 80.40625 L 192.804688 79.6875 L 193.726562 79.6875 C 194.828125 79.6875 195.609375 79.347656 196.070312 78.667969 C 196.351562 78.253906 196.492188 77.300781 196.492188 75.8125 L 196.492188 55.5625 L 193.40625 55.5625 C 192.210938 55.5625 191.359375 55.652344 190.851562 55.835938 C 190.195312 56.082031 189.636719 56.558594 189.167969 57.261719 C 188.703125 57.964844 188.425781 58.914062 188.335938 60.113281 L 187.617188 60.113281 L 187.867188 53.90625 L 208.867188 53.90625 "/>
<path fill-rule="nonzero" fill="rgb(6.15387%, 25.1297%, 46.405029%)" fill-opacity="1" d="M 229.363281 53.90625 L 238.335938 53.90625 L 238.335938 54.625 L 237.84375 54.625 C 237.515625 54.625 237.035156 54.773438 236.402344 55.074219 C 235.773438 55.378906 235.195312 55.808594 234.679688 56.371094 C 234.160156 56.933594 233.523438 57.847656 232.765625 59.117188 L 226.578125 69.082031 L 226.578125 75.8125 C 226.578125 77.441406 226.757812 78.460938 227.117188 78.863281 C 227.601562 79.414062 228.371094 79.6875 229.417969 79.6875 L 230.265625 79.6875 L 230.265625 80.40625 L 219.265625 80.40625 L 219.265625 79.6875 L 220.1875 79.6875 C 221.289062 79.6875 222.070312 79.347656 222.53125 78.667969 C 222.8125 78.253906 222.953125 77.300781 222.953125 75.8125 L 222.953125 69.644531 L 215.894531 58.417969 C 215.0625 57.121094 214.496094 56.3125 214.199219 55.984375 C 213.902344 55.660156 213.285156 55.273438 212.351562 54.820312 C 212.097656 54.691406 211.730469 54.625 211.253906 54.625 L 211.253906 53.90625 L 222.238281 53.90625 L 222.238281 54.625 L 221.667969 54.625 C 221.070312 54.625 220.523438 54.769531 220.023438 55.054688 C 219.523438 55.34375 219.273438 55.773438 219.273438 56.347656 C 219.273438 56.816406 219.660156 57.664062 220.4375 58.890625 L 225.75 67.429688 L 230.820312 59.261719 C 231.578125 58.035156 231.957031 57.121094 231.957031 56.523438 C 231.957031 56.15625 231.867188 55.832031 231.683594 55.542969 C 231.5 55.257812 231.238281 55.03125 230.898438 54.867188 C 230.554688 54.707031 230.042969 54.625 229.363281 54.625 L 229.363281 53.90625 "/>
<path fill-rule="nonzero" fill="rgb(6.15387%, 25.1297%, 46.405029%)" fill-opacity="1" d="M 20.082031 19.171875 L 34.761719 33.695312 C 37.160156 36.117188 39.203125 37.765625 40.898438 38.636719 C 42.59375 39.503906 44.289062 39.996094 45.984375 40.113281 L 45.984375 41.210938 L 27.082031 41.210938 L 27.082031 40.113281 C 28.214844 40.113281 29.03125 39.925781 29.527344 39.542969 C 30.027344 39.164062 30.273438 38.738281 30.273438 38.269531 C 30.273438 37.800781 30.183594 37.378906 29.996094 37.007812 C 29.8125 36.636719 29.199219 35.945312 28.164062 34.929688 L 14.453125 21.363281 L 14.453125 34.175781 C 14.453125 36.1875 14.578125 37.511719 14.832031 38.15625 C 15.027344 38.644531 15.4375 39.0625 16.0625 39.414062 C 16.902344 39.882812 17.792969 40.113281 18.730469 40.113281 L 20.078125 40.113281 L 20.078125 41.210938 L 3.140625 41.210938 L 3.140625 40.113281 L 4.546875 40.113281 C 6.1875 40.113281 7.378906 39.636719 8.125 38.683594 C 8.59375 38.058594 8.828125 36.554688 8.828125 34.175781 L 8.828125 8.519531 C 8.828125 6.511719 8.699219 5.175781 8.445312 4.515625 C 8.25 4.046875 7.851562 3.636719 7.242188 3.285156 C 6.382812 2.816406 5.484375 2.582031 4.546875 2.582031 L 3.140625 2.582031 L 3.140625 1.488281 L 20.078125 1.488281 L 20.078125 2.582031 L 18.730469 2.582031 C 17.8125 2.582031 16.921875 2.808594 16.0625 3.257812 C 15.457031 3.566406 15.039062 4.035156 14.804688 4.660156 C 14.570312 5.285156 14.453125 6.570312 14.453125 8.519531 L 14.453125 20.664062 C 14.84375 20.292969 16.179688 19.054688 18.46875 16.945312 C 24.269531 11.644531 27.773438 8.101562 28.984375 6.328125 C 29.515625 5.546875 29.777344 4.863281 29.777344 4.28125 C 29.777344 3.832031 29.570312 3.4375 29.160156 3.097656 C 28.753906 2.753906 28.058594 2.582031 27.082031 2.582031 L 26.175781 2.582031 L 26.175781 1.488281 L 40.785156 1.488281 L 40.785156 2.582031 C 39.925781 2.601562 39.144531 2.722656 38.441406 2.9375 C 37.738281 3.152344 36.878906 3.570312 35.863281 4.1875 C 34.847656 4.804688 33.597656 5.796875 32.113281 7.171875 C 31.683594 7.558594 29.699219 9.554688 26.15625 13.15625 L 20.082031 19.171875 "/>
<path fill-rule="nonzero" fill="rgb(6.15387%, 25.1297%, 46.405029%)" fill-opacity="1" d="M 62.5 3.644531 L 62.5 19.335938 L 71.21875 19.335938 C 73.476562 19.335938 74.984375 18.992188 75.746094 18.304688 C 76.757812 17.40625 77.320312 15.820312 77.4375 13.550781 L 78.53125 13.550781 L 78.53125 27.394531 L 77.4375 27.394531 C 77.164062 25.464844 76.894531 24.230469 76.621094 23.683594 C 76.269531 23 75.695312 22.464844 74.898438 22.074219 C 74.101562 21.683594 72.875 21.488281 71.21875 21.488281 L 62.5 21.488281 L 62.5 34.597656 C 62.5 36.355469 62.578125 37.425781 62.734375 37.804688 C 62.890625 38.1875 63.164062 38.492188 63.554688 38.714844 C 63.945312 38.941406 64.6875 39.050781 65.78125 39.050781 L 72.519531 39.050781 C 74.765625 39.050781 76.398438 38.894531 77.414062 38.582031 C 78.429688 38.269531 79.40625 37.652344 80.34375 36.730469 C 81.554688 35.519531 82.792969 33.6875 84.0625 31.238281 L 85.25 31.238281 L 81.820312 41.210938 L 51.1875 41.210938 L 51.1875 40.113281 L 52.597656 40.113281 C 53.535156 40.113281 54.421875 39.890625 55.265625 39.4375 C 55.890625 39.125 56.3125 38.65625 56.539062 38.027344 C 56.761719 37.402344 56.875 36.117188 56.875 34.175781 L 56.875 8.394531 C 56.875 5.882812 56.621094 4.335938 56.113281 3.753906 C 55.410156 2.972656 54.238281 2.582031 52.597656 2.582031 L 51.1875 2.582031 L 51.1875 1.488281 L 81.84375 1.488281 L 82.25 10.207031 L 81.09375 10.207031 C 80.683594 8.109375 80.230469 6.667969 79.734375 5.882812 C 79.234375 5.097656 78.496094 4.5 77.523438 4.085938 C 76.742188 3.792969 75.363281 3.644531 73.394531 3.644531 L 62.5 3.644531 "/>
<path fill-rule="nonzero" fill="rgb(6.15387%, 25.1297%, 46.405029%)" fill-opacity="1" d="M 109.621094 40.113281 L 109.621094 41.210938 L 92.621094 41.210938 L 92.621094 40.113281 L 94.027344 40.113281 C 95.667969 40.113281 96.859375 39.636719 97.605469 38.683594 C 98.074219 38.058594 98.308594 36.554688 98.308594 34.175781 L 98.308594 8.519531 C 98.308594 6.511719 98.179688 5.1875 97.925781 4.542969 C 97.730469 4.054688 97.328125 3.636719 96.726562 3.285156 C 95.863281 2.816406 94.964844 2.582031 94.027344 2.582031 L 92.621094 2.582031 L 92.621094 1.488281 L 109.621094 1.488281 L 109.621094 2.582031 L 108.191406 2.582031 C 106.578125 2.582031 105.398438 3.0625 104.660156 4.015625 C 104.175781 4.640625 103.933594 6.140625 103.933594 8.519531 L 103.933594 34.175781 C 103.933594 36.1875 104.058594 37.511719 104.3125 38.15625 C 104.507812 38.644531 104.914062 39.0625 105.535156 39.414062 C 106.371094 39.882812 107.257812 40.113281 108.191406 40.113281 L 109.621094 40.113281 "/>
<path fill-rule="nonzero" fill="rgb(6.15387%, 25.1297%, 46.405029%)" fill-opacity="1" d="M 143.164062 0.585938 L 143.164062 14.335938 L 142.070312 14.335938 C 141.71875 11.695312 141.085938 9.59375 140.175781 8.027344 C 139.265625 6.464844 137.96875 5.226562 136.285156 4.304688 C 134.601562 3.386719 132.855469 2.925781 131.054688 2.925781 C 129.019531 2.925781 127.335938 3.546875 126.003906 4.785156 C 124.671875 6.027344 124.007812 7.4375 124.007812 9.019531 C 124.007812 10.230469 124.429688 11.335938 125.269531 12.328125 C 126.484375 13.792969 129.371094 15.746094 133.933594 18.1875 C 137.652344 20.179688 140.191406 21.707031 141.550781 22.773438 C 142.910156 23.835938 143.953125 25.089844 144.6875 26.535156 C 145.421875 27.980469 145.789062 29.492188 145.789062 31.074219 C 145.789062 34.082031 144.621094 36.671875 142.285156 38.851562 C 139.953125 41.027344 136.949219 42.113281 133.277344 42.113281 C 132.121094 42.113281 131.039062 42.027344 130.023438 41.847656 C 129.417969 41.75 128.160156 41.390625 126.257812 40.765625 C 124.351562 40.144531 123.144531 39.835938 122.636719 39.835938 C 122.148438 39.835938 121.765625 39.980469 121.480469 40.277344 C 121.195312 40.574219 120.988281 41.1875 120.851562 42.113281 L 119.757812 42.113281 L 119.757812 28.488281 L 120.851562 28.488281 C 121.359375 31.34375 122.042969 33.476562 122.902344 34.894531 C 123.761719 36.3125 125.074219 37.488281 126.84375 38.425781 C 128.609375 39.363281 130.546875 39.835938 132.65625 39.835938 C 135.101562 39.835938 137.027344 39.1875 138.445312 37.898438 C 139.859375 36.605469 140.570312 35.078125 140.570312 33.320312 C 140.570312 32.339844 140.300781 31.351562 139.765625 30.355469 C 139.226562 29.355469 138.394531 28.429688 137.261719 27.566406 C 136.5 26.980469 134.414062 25.738281 131.003906 23.84375 C 127.59375 21.945312 125.167969 20.433594 123.730469 19.300781 C 122.296875 18.167969 121.207031 16.917969 120.464844 15.550781 C 119.722656 14.183594 119.351562 12.679688 119.351562 11.039062 C 119.351562 8.1875 120.445312 5.734375 122.636719 3.671875 C 124.828125 1.613281 127.617188 0.585938 131.003906 0.585938 C 133.117188 0.585938 135.355469 1.101562 137.726562 2.132812 C 138.820312 2.621094 139.59375 2.863281 140.042969 2.863281 C 140.554688 2.863281 140.96875 2.714844 141.292969 2.410156 C 141.613281 2.109375 141.875 1.5 142.070312 0.585938 L 143.164062 0.585938 "/>
<path fill-rule="nonzero" fill="rgb(6.15387%, 25.1297%, 46.405029%)" fill-opacity="1" d="M 166 3.644531 L 166 19.335938 L 174.71875 19.335938 C 176.976562 19.335938 178.488281 18.992188 179.246094 18.304688 C 180.257812 17.40625 180.820312 15.820312 180.9375 13.550781 L 182.03125 13.550781 L 182.03125 27.394531 L 180.9375 27.394531 C 180.667969 25.464844 180.394531 24.230469 180.121094 23.683594 C 179.769531 23 179.195312 22.464844 178.398438 22.074219 C 177.601562 21.683594 176.375 21.488281 174.71875 21.488281 L 166 21.488281 L 166 34.597656 C 166 36.355469 166.078125 37.425781 166.234375 37.804688 C 166.390625 38.1875 166.664062 38.492188 167.054688 38.714844 C 167.445312 38.941406 168.1875 39.050781 169.28125 39.050781 L 176.019531 39.050781 C 178.265625 39.050781 179.898438 38.894531 180.914062 38.582031 C 181.929688 38.269531 182.90625 37.652344 183.84375 36.730469 C 185.054688 35.519531 186.292969 33.6875 187.5625 31.238281 L 188.75 31.238281 L 185.320312 41.210938 L 154.6875 41.210938 L 154.6875 40.113281 L 156.097656 40.113281 C 157.035156 40.113281 157.921875 39.890625 158.765625 39.4375 C 159.390625 39.125 159.816406 38.65625 160.039062 38.027344 C 160.265625 37.402344 160.375 36.117188 160.375 34.175781 L 160.375 8.394531 C 160.375 5.882812 160.121094 4.335938 159.613281 3.753906 C 158.910156 2.972656 157.738281 2.582031 156.097656 2.582031 L 154.6875 2.582031 L 154.6875 1.488281 L 185.34375 1.488281 L 185.75 10.207031 L 184.59375 10.207031 C 184.183594 8.109375 183.730469 6.667969 183.234375 5.882812 C 182.734375 5.097656 182 4.5 181.023438 4.085938 C 180.242188 3.792969 178.867188 3.644531 176.894531 3.644531 L 166 3.644531 "/>
<path fill-rule="nonzero" fill="rgb(6.15387%, 25.1297%, 46.405029%)" fill-opacity="1" d="M 206.996094 20.800781 C 207.363281 20.800781 207.679688 20.808594 207.949219 20.816406 C 208.222656 20.828125 208.441406 20.832031 208.617188 20.832031 C 212.359375 20.832031 215.183594 20.011719 217.082031 18.367188 C 218.984375 16.726562 219.933594 14.636719 219.933594 12.09375 C 219.933594 9.613281 219.167969 7.59375 217.632812 6.039062 C 216.097656 4.484375 214.066406 3.707031 211.539062 3.707031 C 210.421875 3.707031 208.90625 3.894531 206.996094 4.269531 Z M 235.199219 41.210938 L 224.574219 41.210938 L 211.105469 22.644531 C 210.121094 22.683594 209.320312 22.703125 208.703125 22.703125 C 208.453125 22.703125 208.179688 22.699219 207.890625 22.691406 C 207.601562 22.679688 207.304688 22.664062 206.996094 22.644531 L 206.996094 34.175781 C 206.996094 36.671875 207.269531 38.222656 207.8125 38.828125 C 208.550781 39.6875 209.660156 40.113281 211.136719 40.113281 L 212.683594 40.113281 L 212.683594 41.210938 L 195.683594 41.210938 L 195.683594 40.113281 L 197.171875 40.113281 C 198.84375 40.113281 200.039062 39.570312 200.757812 38.476562 C 201.167969 37.871094 201.371094 36.441406 201.371094 34.175781 L 201.371094 8.519531 C 201.371094 6.023438 201.097656 4.476562 200.554688 3.871094 C 199.796875 3.011719 198.667969 2.582031 197.171875 2.582031 L 195.683594 2.582031 L 195.683594 1.488281 L 210.144531 1.488281 C 214.359375 1.488281 217.464844 1.796875 219.464844 2.414062 C 221.464844 3.027344 223.164062 4.160156 224.558594 5.8125 C 225.953125 7.460938 226.652344 9.429688 226.652344 11.714844 C 226.652344 14.15625 225.855469 16.273438 224.261719 18.070312 C 222.667969 19.867188 220.199219 21.140625 216.855469 21.882812 L 225.089844 33.246094 C 226.964844 35.867188 228.578125 37.609375 229.925781 38.472656 C 231.273438 39.332031 233.03125 39.878906 235.199219 40.113281 L 235.199219 41.210938 "/>
<path fill-rule="nonzero" fill="rgb(6.15387%, 25.1297%, 46.405029%)" fill-opacity="1" d="M 1.757812 46.171875 L 239.128906 46.171875 L 239.128906 48.515625 L 1.757812 48.515625 Z M 1.757812 46.171875 "/>
</svg>
